{
    "asset" : {
        "generator" : "Khronos glTF Blender I/O v1.6.16",
        "version" : "2.0"
    },
    "scene" : 0,
    "scenes" : [
        {
            "name" : "Scene",
            "nodes" : [
                0
            ]
        }
    ],
    "nodes" : [
        {
            "mesh" : 0,
            "name" : "Cube.001",
            "rotation" : [
                0.11831527203321457,
                0.9609174132347107,
                -0.1345449537038803,
                0.21103818714618683
            ],
            "scale" : [
                0.06433431059122086,
                0.06433431804180145,
                0.06433434039354324
            ]
        }
    ],
    "materials" : [
        {
            "doubleSided" : true,
            "name" : "Material.003",
            "pbrMetallicRoughness" : {
                "baseColorFactor" : [
                    0.008075881749391556,
                    0.008075881749391556,
                    0.008075881749391556,
                    1
                ],
                "metallicFactor" : 0,
                "roughnessFactor" : 0.5
            }
        },
        {
            "doubleSided" : true,
            "name" : "Material.001",
            "pbrMetallicRoughness" : {
                "baseColorFactor" : [
                    0.5814633965492249,
                    0.16868817806243896,
                    0.08113929629325867,
                    1
                ],
                "metallicFactor" : 0,
                "roughnessFactor" : 0.7482269406318665
            }
        },
        {
            "doubleSided" : true,
            "name" : "Material.007",
            "pbrMetallicRoughness" : {
                "baseColorFactor" : [
                    0.20791654288768768,
                    0.20791654288768768,
                    0.20791654288768768,
                    1
                ],
                "metallicFactor" : 0,
                "roughnessFactor" : 0.6418439745903015
            }
        },
        {
            "doubleSided" : true,
            "name" : "Material.008",
            "pbrMetallicRoughness" : {
                "baseColorFactor" : [
                    0.20791654288768768,
                    0.20791654288768768,
                    0.20791654288768768,
                    1
                ],
                "metallicFactor" : 0,
                "roughnessFactor" : 0.6418439745903015
            }
        },
        {
            "doubleSided" : true,
            "name" : "Material.011",
            "pbrMetallicRoughness" : {
                "baseColorFactor" : [
                    0.28100982308387756,
                    0.28100982308387756,
                    0.28100982308387756,
                    1
                ],
                "metallicFactor" : 0,
                "roughnessFactor" : 0.5
            }
        },
        {
            "doubleSided" : true,
            "name" : "Material.005",
            "pbrMetallicRoughness" : {
                "baseColorFactor" : [
                    0.841203510761261,
                    0.4169519245624542,
                    0.04396591708064079,
                    1
                ],
                "metallicFactor" : 0,
                "roughnessFactor" : 0.5
            }
        },
        {
            "doubleSided" : true,
            "name" : "Material.010",
            "pbrMetallicRoughness" : {
                "baseColorFactor" : [
                    0,
                    0,
                    0,
                    1
                ],
                "metallicFactor" : 0,
                "roughnessFactor" : 0.5921986103057861
            }
        },
        {
            "doubleSided" : true,
            "name" : "Material.012",
            "pbrMetallicRoughness" : {
                "baseColorFactor" : [
                    0,
                    0,
                    0,
                    1
                ],
                "metallicFactor" : 0,
                "roughnessFactor" : 0.5921986103057861
            }
        },
        {
            "doubleSided" : true,
            "name" : "Material.014",
            "pbrMetallicRoughness" : {
                "baseColorFactor" : [
                    0,
                    0.0020267628133296967,
                    0.8000000715255737,
                    1
                ],
                "metallicFactor" : 0,
                "roughnessFactor" : 0.5
            }
        },
        {
            "doubleSided" : true,
            "name" : "Material.013",
            "pbrMetallicRoughness" : {
                "baseColorFactor" : [
                    0.8000000715255737,
                    0.010718951933085918,
                    0,
                    1
                ],
                "metallicFactor" : 0,
                "roughnessFactor" : 0.5
            }
        },
        {
            "alphaMode" : "BLEND",
            "doubleSided" : true,
            "name" : "Material.004",
            "pbrMetallicRoughness" : {
                "baseColorFactor" : [
                    0.03597564622759819,
                    0.5227529406547546,
                    0.8000000715255737,
                    1
                ],
                "metallicFactor" : 0,
                "roughnessFactor" : 0.5
            }
        },
        {
            "doubleSided" : true,
            "name" : "Material.009",
            "pbrMetallicRoughness" : {
                "baseColorFactor" : [
                    0.3813827335834503,
                    0.9151197671890259,
                    1,
                    1
                ],
                "metallicFactor" : 0
            }
        }
    ],
    "meshes" : [
        {
            "name" : "Cube.003",
            "primitives" : [
                {
                    "attributes" : {
                        "POSITION" : 0,
                        "NORMAL" : 1,
                        "TEXCOORD_0" : 2
                    },
                    "indices" : 3,
                    "material" : 0
                },
                {
                    "attributes" : {
                        "POSITION" : 4,
                        "NORMAL" : 5,
                        "TEXCOORD_0" : 6
                    },
                    "indices" : 7,
                    "material" : 1
                },
                {
                    "attributes" : {
                        "POSITION" : 8,
                        "NORMAL" : 9,
                        "TEXCOORD_0" : 10
                    },
                    "indices" : 11,
                    "material" : 2
                },
                {
                    "attributes" : {
                        "POSITION" : 12,
                        "NORMAL" : 13,
                        "TEXCOORD_0" : 14
                    },
                    "indices" : 15,
                    "material" : 3
                },
                {
                    "attributes" : {
                        "POSITION" : 16,
                        "NORMAL" : 17,
                        "TEXCOORD_0" : 18
                    },
                    "indices" : 19,
                    "material" : 4
                },
                {
                    "attributes" : {
                        "POSITION" : 20,
                        "NORMAL" : 21,
                        "TEXCOORD_0" : 22
                    },
                    "indices" : 23,
                    "material" : 5
                },
                {
                    "attributes" : {
                        "POSITION" : 24,
                        "NORMAL" : 25,
                        "TEXCOORD_0" : 26
                    },
                    "indices" : 27,
                    "material" : 6
                },
                {
                    "attributes" : {
                        "POSITION" : 28,
                        "NORMAL" : 29,
                        "TEXCOORD_0" : 30
                    },
                    "indices" : 27,
                    "material" : 7
                },
                {
                    "attributes" : {
                        "POSITION" : 31,
                        "NORMAL" : 32,
                        "TEXCOORD_0" : 33
                    },
                    "indices" : 34,
                    "material" : 8
                },
                {
                    "attributes" : {
                        "POSITION" : 35,
                        "NORMAL" : 36,
                        "TEXCOORD_0" : 37
                    },
                    "indices" : 34,
                    "material" : 9
                },
                {
                    "attributes" : {
                        "POSITION" : 38,
                        "NORMAL" : 39,
                        "TEXCOORD_0" : 40
                    },
                    "indices" : 41,
                    "material" : 10
                },
                {
                    "attributes" : {
                        "POSITION" : 42,
                        "NORMAL" : 43,
                        "TEXCOORD_0" : 44
                    },
                    "indices" : 45,
                    "material" : 11
                }
            ]
        }
    ],
    "accessors" : [
        {
            "bufferView" : 0,
            "componentType" : 5126,
            "count" : 772,
            "max" : [
                1.305906057357788,
                1.743725299835205,
                1.0593435764312744
            ],
            "min" : [
                -5.256795406341553,
                -1.6566938161849976,
                -5.029284477233887
            ],
            "type" : "VEC3"
        },
        {
            "bufferView" : 1,
            "componentType" : 5126,
            "count" : 772,
            "type" : "VEC3"
        },
        {
            "bufferView" : 2,
            "componentType" : 5126,
            "count" : 772,
            "type" : "VEC2"
        },
        {
            "bufferView" : 3,
            "componentType" : 5123,
            "count" : 1158,
            "type" : "SCALAR"
        },
        {
            "bufferView" : 4,
            "componentType" : 5126,
            "count" : 128,
            "max" : [
                9.127910614013672,
                3.3086066246032715,
                8.976251602172852
            ],
            "min" : [
                2.3833813667297363,
                -2.934183120727539,
                2.4559481143951416
            ],
            "type" : "VEC3"
        },
        {
            "bufferView" : 5,
            "componentType" : 5126,
            "count" : 128,
            "type" : "VEC3"
        },
        {
            "bufferView" : 6,
            "componentType" : 5126,
            "count" : 128,
            "type" : "VEC2"
        },
        {
            "bufferView" : 7,
            "componentType" : 5123,
            "count" : 186,
            "type" : "SCALAR"
        },
        {
            "bufferView" : 8,
            "componentType" : 5126,
            "count" : 4128,
            "max" : [
                18.4070987701416,
                -5.725770950317383,
                23.843584060668945
            ],
            "min" : [
                -31.396102905273438,
                -49.86269760131836,
                -8.354635238647461
            ],
            "type" : "VEC3"
        },
        {
            "bufferView" : 9,
            "componentType" : 5126,
            "count" : 4128,
            "type" : "VEC3"
        },
        {
            "bufferView" : 10,
            "componentType" : 5126,
            "count" : 4128,
            "type" : "VEC2"
        },
        {
            "bufferView" : 11,
            "componentType" : 5123,
            "count" : 6444,
            "type" : "SCALAR"
        },
        {
            "bufferView" : 12,
            "componentType" : 5126,
            "count" : 1856,
            "max" : [
                17.02730369567871,
                -16.765520095825195,
                23.1142520904541
            ],
            "min" : [
                -29.485395431518555,
                -46.678951263427734,
                1.6762914657592773
            ],
            "type" : "VEC3"
        },
        {
            "bufferView" : 13,
            "componentType" : 5126,
            "count" : 1856,
            "type" : "VEC3"
        },
        {
            "bufferView" : 14,
            "componentType" : 5126,
            "count" : 1856,
            "type" : "VEC2"
        },
        {
            "bufferView" : 15,
            "componentType" : 5123,
            "count" : 2868,
            "type" : "SCALAR"
        },
        {
            "bufferView" : 16,
            "componentType" : 5126,
            "count" : 896,
            "max" : [
                16.244150161743164,
                -11.407276153564453,
                20.6574649810791
            ],
            "min" : [
                -26.713186264038086,
                -38.88703918457031,
                -1.7726569175720215
            ],
            "type" : "VEC3"
        },
        {
            "bufferView" : 17,
            "componentType" : 5126,
            "count" : 896,
            "type" : "VEC3"
        },
        {
            "bufferView" : 18,
            "componentType" : 5126,
            "count" : 896,
            "type" : "VEC2"
        },
        {
            "bufferView" : 19,
            "componentType" : 5123,
            "count" : 1512,
            "type" : "SCALAR"
        },
        {
            "bufferView" : 20,
            "componentType" : 5126,
            "count" : 1536,
            "max" : [
                4.513507843017578,
                3.3690998554229736,
                4.672206878662109
            ],
            "min" : [
                -5.430144309997559,
                -4.787456035614014,
                -4.953361511230469
            ],
            "type" : "VEC3"
        },
        {
            "bufferView" : 21,
            "componentType" : 5126,
            "count" : 1536,
            "type" : "VEC3"
        },
        {
            "bufferView" : 22,
            "componentType" : 5126,
            "count" : 1536,
            "type" : "VEC2"
        },
        {
            "bufferView" : 23,
            "componentType" : 5123,
            "count" : 2304,
            "type" : "SCALAR"
        },
        {
            "bufferView" : 24,
            "componentType" : 5126,
            "count" : 448,
            "max" : [
                2.358910083770752,
                6.836283206939697,
                0.9206423759460449
            ],
            "min" : [
                -2.967780590057373,
                1.4903651475906372,
                -4.514733791351318
            ],
            "type" : "VEC3"
        },
        {
            "bufferView" : 25,
            "componentType" : 5126,
            "count" : 448,
            "type" : "VEC3"
        },
        {
            "bufferView" : 26,
            "componentType" : 5126,
            "count" : 448,
            "type" : "VEC2"
        },
        {
            "bufferView" : 27,
            "componentType" : 5123,
            "count" : 756,
            "type" : "SCALAR"
        },
        {
            "bufferView" : 28,
            "componentType" : 5126,
            "count" : 448,
            "max" : [
                18.142864227294922,
                42.38762283325195,
                7.373802661895752
            ],
            "min" : [
                -7.005865573883057,
                17.148120880126953,
                -18.288055419921875
            ],
            "type" : "VEC3"
        },
        {
            "bufferView" : 29,
            "componentType" : 5126,
            "count" : 448,
            "type" : "VEC3"
        },
        {
            "bufferView" : 30,
            "componentType" : 5126,
            "count" : 448,
            "type" : "VEC2"
        },
        {
            "bufferView" : 31,
            "componentType" : 5126,
            "count" : 2352,
            "max" : [
                9.643343925476074,
                2.468456745147705,
                2.8080830574035645
            ],
            "min" : [
                1.3961673974990845,
                -14.87468147277832,
                -1.8570618629455566
            ],
            "type" : "VEC3"
        },
        {
            "bufferView" : 32,
            "componentType" : 5126,
            "count" : 2352,
            "type" : "VEC3"
        },
        {
            "bufferView" : 33,
            "componentType" : 5126,
            "count" : 2352,
            "type" : "VEC2"
        },
        {
            "bufferView" : 34,
            "componentType" : 5123,
            "count" : 13536,
            "type" : "SCALAR"
        },
        {
            "bufferView" : 35,
            "componentType" : 5126,
            "count" : 2352,
            "max" : [
                9.626261711120605,
                2.8359627723693848,
                2.9693431854248047
            ],
            "min" : [
                1.5341335535049438,
                -14.827262878417969,
                -0.7767789363861084
            ],
            "type" : "VEC3"
        },
        {
            "bufferView" : 36,
            "componentType" : 5126,
            "count" : 2352,
            "type" : "VEC3"
        },
        {
            "bufferView" : 37,
            "componentType" : 5126,
            "count" : 2352,
            "type" : "VEC2"
        },
        {
            "bufferView" : 38,
            "componentType" : 5126,
            "count" : 559,
            "max" : [
                23.75130844116211,
                25.180492401123047,
                22.802976608276367
            ],
            "min" : [
                -19.563457489013672,
                -18.19356918334961,
                -20.465608596801758
            ],
            "type" : "VEC3"
        },
        {
            "bufferView" : 39,
            "componentType" : 5126,
            "count" : 559,
            "type" : "VEC3"
        },
        {
            "bufferView" : 40,
            "componentType" : 5126,
            "count" : 559,
            "type" : "VEC2"
        },
        {
            "bufferView" : 41,
            "componentType" : 5123,
            "count" : 2880,
            "type" : "SCALAR"
        },
        {
            "bufferView" : 42,
            "componentType" : 5126,
            "count" : 6912,
            "max" : [
                1.3038405179977417,
                -22.20233726501465,
                14.483383178710938
            ],
            "min" : [
                -7.24400520324707,
                -30.10009765625,
                6.169959545135498
            ],
            "type" : "VEC3"
        },
        {
            "bufferView" : 43,
            "componentType" : 5126,
            "count" : 6912,
            "type" : "VEC3"
        },
        {
            "bufferView" : 44,
            "componentType" : 5126,
            "count" : 6912,
            "type" : "VEC2"
        },
        {
            "bufferView" : 45,
            "componentType" : 5123,
            "count" : 10368,
            "type" : "SCALAR"
        }
    ],
    "bufferViews" : [
        {
            "buffer" : 0,
            "byteLength" : 9264,
            "byteOffset" : 0
        },
        {
            "buffer" : 0,
            "byteLength" : 9264,
            "byteOffset" : 9264
        },
        {
            "buffer" : 0,
            "byteLength" : 6176,
            "byteOffset" : 18528
        },
        {
            "buffer" : 0,
            "byteLength" : 2316,
            "byteOffset" : 24704
        },
        {
            "buffer" : 0,
            "byteLength" : 1536,
            "byteOffset" : 27020
        },
        {
            "buffer" : 0,
            "byteLength" : 1536,
            "byteOffset" : 28556
        },
        {
            "buffer" : 0,
            "byteLength" : 1024,
            "byteOffset" : 30092
        },
        {
            "buffer" : 0,
            "byteLength" : 372,
            "byteOffset" : 31116
        },
        {
            "buffer" : 0,
            "byteLength" : 49536,
            "byteOffset" : 31488
        },
        {
            "buffer" : 0,
            "byteLength" : 49536,
            "byteOffset" : 81024
        },
        {
            "buffer" : 0,
            "byteLength" : 33024,
            "byteOffset" : 130560
        },
        {
            "buffer" : 0,
            "byteLength" : 12888,
            "byteOffset" : 163584
        },
        {
            "buffer" : 0,
            "byteLength" : 22272,
            "byteOffset" : 176472
        },
        {
            "buffer" : 0,
            "byteLength" : 22272,
            "byteOffset" : 198744
        },
        {
            "buffer" : 0,
            "byteLength" : 14848,
            "byteOffset" : 221016
        },
        {
            "buffer" : 0,
            "byteLength" : 5736,
            "byteOffset" : 235864
        },
        {
            "buffer" : 0,
            "byteLength" : 10752,
            "byteOffset" : 241600
        },
        {
            "buffer" : 0,
            "byteLength" : 10752,
            "byteOffset" : 252352
        },
        {
            "buffer" : 0,
            "byteLength" : 7168,
            "byteOffset" : 263104
        },
        {
            "buffer" : 0,
            "byteLength" : 3024,
            "byteOffset" : 270272
        },
        {
            "buffer" : 0,
            "byteLength" : 18432,
            "byteOffset" : 273296
        },
        {
            "buffer" : 0,
            "byteLength" : 18432,
            "byteOffset" : 291728
        },
        {
            "buffer" : 0,
            "byteLength" : 12288,
            "byteOffset" : 310160
        },
        {
            "buffer" : 0,
            "byteLength" : 4608,
            "byteOffset" : 322448
        },
        {
            "buffer" : 0,
            "byteLength" : 5376,
            "byteOffset" : 327056
        },
        {
            "buffer" : 0,
            "byteLength" : 5376,
            "byteOffset" : 332432
        },
        {
            "buffer" : 0,
            "byteLength" : 3584,
            "byteOffset" : 337808
        },
        {
            "buffer" : 0,
            "byteLength" : 1512,
            "byteOffset" : 341392
        },
        {
            "buffer" : 0,
            "byteLength" : 5376,
            "byteOffset" : 342904
        },
        {
            "buffer" : 0,
            "byteLength" : 5376,
            "byteOffset" : 348280
        },
        {
            "buffer" : 0,
            "byteLength" : 3584,
            "byteOffset" : 353656
        },
        {
            "buffer" : 0,
            "byteLength" : 28224,
            "byteOffset" : 357240
        },
        {
            "buffer" : 0,
            "byteLength" : 28224,
            "byteOffset" : 385464
        },
        {
            "buffer" : 0,
            "byteLength" : 18816,
            "byteOffset" : 413688
        },
        {
            "buffer" : 0,
            "byteLength" : 27072,
            "byteOffset" : 432504
        },
        {
            "buffer" : 0,
            "byteLength" : 28224,
            "byteOffset" : 459576
        },
        {
            "buffer" : 0,
            "byteLength" : 28224,
            "byteOffset" : 487800
        },
        {
            "buffer" : 0,
            "byteLength" : 18816,
            "byteOffset" : 516024
        },
        {
            "buffer" : 0,
            "byteLength" : 6708,
            "byteOffset" : 534840
        },
        {
            "buffer" : 0,
            "byteLength" : 6708,
            "byteOffset" : 541548
        },
        {
            "buffer" : 0,
            "byteLength" : 4472,
            "byteOffset" : 548256
        },
        {
            "buffer" : 0,
            "byteLength" : 5760,
            "byteOffset" : 552728
        },
        {
            "buffer" : 0,
            "byteLength" : 82944,
            "byteOffset" : 558488
        },
        {
            "buffer" : 0,
            "byteLength" : 82944,
            "byteOffset" : 641432
        },
        {
            "buffer" : 0,
            "byteLength" : 55296,
            "byteOffset" : 724376
        },
        {
            "buffer" : 0,
            "byteLength" : 20736,
            "byteOffset" : 779672
        }
    ],
    "buffers" : [
        {
            "byteLength" : 800408,
            "uri" : "data:application/octet-stream;base64,"
        }
    ]
}
